<?xml version="1.0" encoding="UTF-8" standalone="no"?>
<!DOCTYPE svg PUBLIC "-//W3C//DTD SVG 1.1//EN" "http://www.w3.org/Graphics/SVG/1.1/DTD/svg11.dtd">
<svg width="100%" height="100%" viewBox="0 0 249 146" version="1.1" xmlns="http://www.w3.org/2000/svg" xmlns:xlink="http://www.w3.org/1999/xlink" xml:space="preserve" xmlns:serif="http://www.serif.com/" style="fill-rule:evenodd;clip-rule:evenodd;stroke-linejoin:round;stroke-miterlimit:2;">
    <g transform="matrix(1.33333,0,0,1.33333,-340.663,-246.474)">
        <g id="Layer1">
            <rect x="273.088" y="273.279" width="0.78" height="0.505"/>
            <path d="M364.76,262.711L364.76,293.892L343.766,293.892L343.766,282.056L337.21,282.056L337.21,293.892L316.329,293.892L316.329,262.711L364.76,262.711Z"/>
            <path d="M265.501,261.495C271.022,261.495 275.504,265.977 275.504,271.498C275.504,277.019 271.022,281.501 265.501,281.501C259.98,281.501 255.497,277.019 255.497,271.498C255.497,265.977 259.98,261.495 265.501,261.495ZM265.501,268.61C263.907,268.61 262.613,269.904 262.613,271.498C262.613,273.092 263.907,274.386 265.501,274.386C267.095,274.386 268.389,273.092 268.389,271.498C268.389,269.904 267.095,268.61 265.501,268.61Z"/>
            <g transform="matrix(1,0,0,0.992631,0,1.43523)">
                <path d="M441.971,184.782L441.971,204.772L270.766,204.772L270.766,184.782L441.971,184.782ZM419.564,191.283C417.782,191.283 416.335,192.74 416.335,194.535C416.335,196.331 417.782,197.788 419.564,197.788C421.346,197.788 422.792,196.331 422.792,194.535C422.792,192.74 421.346,191.283 419.564,191.283ZM290.304,191.283C288.522,191.283 287.075,192.74 287.075,194.535C287.075,196.331 288.522,197.788 290.304,197.788C292.086,197.788 293.532,196.331 293.532,194.535C293.532,192.74 292.086,191.283 290.304,191.283Z"/>
            </g>
            <g transform="matrix(0.991797,0,0,0.991797,3.36394,2.2272)">
                <path d="M410.068,261.495C415.589,261.495 420.071,265.977 420.071,271.498C420.071,277.019 415.589,281.501 410.068,281.501C404.547,281.501 400.064,277.019 400.064,271.498C400.064,265.977 404.547,261.495 410.068,261.495ZM410.068,268.705C408.526,268.705 407.275,269.956 407.275,271.498C407.275,273.039 408.526,274.291 410.068,274.291C411.609,274.291 412.861,273.039 412.861,271.498C412.861,269.956 411.609,268.705 410.068,268.705Z"/>
            </g>
            <g transform="matrix(1,0,0,1,4.46408,3.13653)">
                <g transform="matrix(11,0,0,11,301.265,247.686)">
                </g>
                <text x="253.987px" y="247.686px" style="font-family:'HelveticaNeue', 'Helvetica Neue';font-size:11px;">HB9DQM</text>
            </g>
            <g transform="matrix(1,0,0,1,-42.0017,-32.6023)">
                <g transform="matrix(0.0398837,0,0,0.0398837,370.009,260.076)">
                    <path d="M185.3,734.72L199.99,734.72L199.99,684.92C199.99,666.93 187.61,660.88 169.62,660.88C158.68,660.88 150.62,663.75 145.01,671.53L156.52,680.31C159.11,676.14 162.71,674.69 170.34,674.69C180.85,674.69 185.31,677.14 185.31,684.05L185.31,691.68L165.01,691.68C149.32,691.68 141.26,701.62 141.26,713.27C141.26,725.94 150.76,735.58 167.02,735.58C176.95,735.58 181.99,733.28 185.01,728.24L185.3,728.24L185.3,734.72ZM185.31,709.1C185.31,720.48 181.14,721.77 168.9,721.77C158.97,721.77 155.08,717.45 155.08,712.56C155.08,707.23 159.11,703.77 167.75,703.77L185.31,703.77L185.31,709.1Z"/>
                </g>
                <g transform="matrix(0.0398837,0,0,0.0398837,370.009,260.076)">
                    <path d="M216.11,734.72L230.8,734.72L230.8,690.82C230.8,680.18 237.86,675.56 245.05,675.56C248.79,675.56 251.24,676.57 254.69,679.16L265.34,666.49C260.88,663.04 255.99,660.88 250.08,660.88C242.31,660.88 235.68,663.76 231.08,669.52L230.79,669.52L230.79,661.75L216.11,661.75L216.11,734.72Z"/>
                </g>
                <g transform="matrix(0.0398837,0,0,0.0398837,370.009,260.076)">
                    <path d="M309.26,734.72L323.94,734.72L323.94,632.23L309.26,632.23L309.26,669.51C303.79,664.33 297.89,660.87 290.4,660.87C281.48,660.87 275,664.89 270.83,670.37C266.8,675.54 265.65,680.29 265.65,698.15C265.65,716.01 266.8,720.88 270.83,726.07C275,731.54 281.48,735.57 290.4,735.57C297.89,735.57 304.65,732.11 309.26,727.08L309.26,734.72ZM294.87,675.56C308.55,675.56 309.27,687.66 309.27,698.17C309.27,708.68 308.55,720.9 294.87,720.9C281.19,720.9 280.33,709.53 280.33,698.17C280.33,686.81 281.05,675.56 294.87,675.56"/>
                </g>
                <g transform="matrix(0.0398837,0,0,0.0398837,370.009,260.076)">
                    <path d="M398.87,734.72L411.83,734.72L435.14,661.75L419.59,661.75L405.64,712.84L405.34,712.84L388.79,661.75L378.14,661.75L361.59,712.84L361.3,712.84L347.34,661.75L331.8,661.75L355.11,734.72L368.07,734.72L383.32,683.62L383.61,683.62L398.87,734.72Z"/>
                </g>
                <g transform="matrix(0.0398837,0,0,0.0398837,370.009,260.076)">
                    <path d="M480.31,734.72L495,734.72L495,684.92C495,666.93 482.62,660.88 464.63,660.88C453.69,660.88 445.63,663.75 440.01,671.53L451.53,680.31C454.12,676.14 457.71,674.69 465.34,674.69C475.85,674.69 480.31,677.14 480.31,684.05L480.31,691.68L460.01,691.68C444.33,691.68 436.26,701.62 436.26,713.27C436.26,725.94 445.76,735.58 462.03,735.58C471.96,735.58 477,733.28 480.03,728.24L480.31,728.24L480.31,734.72ZM480.32,709.1C480.32,720.48 476.15,721.77 463.91,721.77C453.98,721.77 450.09,717.45 450.09,712.56C450.09,707.23 454.12,703.77 462.76,703.77L480.32,703.77L480.32,709.1Z"/>
                </g>
                <g transform="matrix(0.0398837,0,0,0.0398837,370.009,260.076)">
                    <path d="M511.13,734.72L525.82,734.72L525.82,690.82C525.82,680.18 532.87,675.56 540.07,675.56C543.82,675.56 546.26,676.57 549.71,679.16L560.36,666.49C555.9,663.04 551,660.88 545.1,660.88C537.33,660.88 530.71,663.76 526.1,669.52L525.81,669.52L525.81,661.75L511.13,661.75L511.13,734.72Z"/>
                </g>
                <g transform="matrix(0.0398837,0,0,0.0398837,370.009,260.076)">
                    <path d="M620.79,703.78L620.79,691.68C620.79,672.83 606.83,660.88 590.72,660.88C576.61,660.88 560.64,670.09 560.64,698.44C560.64,728.38 578.05,735.58 593.03,735.58C602.82,735.58 612.17,732.13 619.37,723.78L608.72,714.71C604.4,719.18 598.35,721.77 592.75,721.77C582.67,721.77 575.34,715.72 575.34,703.78L620.81,703.78L620.79,703.78ZM575.32,691.68C575.6,680.6 582.08,674.69 590.72,674.69C599.36,674.69 605.69,680.6 606.12,691.68L575.32,691.68Z"/>
                </g>
                <g transform="matrix(0.0398837,0,0,0.0398837,370.009,260.076)">
                    <path d="M0,582.9C0,598.73 2.3,604.78 7.91,610.97C11.94,615.43 18.71,620.32 30.08,620.32C41.45,620.32 48.21,615.43 52.25,610.97C57.86,604.78 60.17,598.73 60.17,582.9C60.17,567.07 57.87,561.16 52.25,554.98C48.22,550.52 41.45,545.62 30.08,545.62C18.71,545.62 11.94,550.52 7.91,554.98C2.3,561.17 -0,567.21 -0,582.9M45.48,583.04C45.48,593.55 44.62,596.42 41.88,600.31C39.72,603.33 35.11,605.64 30.08,605.64C25.05,605.64 20.44,603.34 18.28,600.31C15.54,596.42 14.68,593.55 14.68,582.9C14.68,572.25 15.55,569.51 18.28,565.63C20.44,562.61 25.04,560.3 30.08,560.3C35.12,560.3 39.72,562.6 41.88,565.63C44.62,569.51 45.48,572.39 45.48,583.04"/>
                </g>
                <g transform="matrix(0.0398837,0,0,0.0398837,370.009,260.076)">
                    <path d="M201.05,588.51L201.05,576.42C201.05,557.56 187.09,545.61 170.97,545.61C156.86,545.61 140.89,554.83 140.89,583.18C140.89,613.11 158.3,620.31 173.27,620.31C183.06,620.31 192.41,616.86 199.61,608.51L188.96,599.45C184.64,603.91 178.6,606.51 172.99,606.51C162.91,606.51 155.57,600.46 155.57,588.51L201.05,588.51ZM155.57,576.43C155.86,565.34 162.34,559.44 170.97,559.44C179.6,559.44 185.94,565.34 186.37,576.43L155.57,576.43Z"/>
                </g>
                <g transform="matrix(0.0398837,0,0,0.0398837,370.009,260.076)">
                    <path d="M213.58,619.45L228.26,619.45L228.26,575.99C228.26,566.05 234.45,560.3 242.8,560.3C251.15,560.3 257.2,566.05 257.2,575.99L257.2,619.45L271.88,619.45L271.88,570.95C271.88,554.39 258.93,545.61 247.56,545.61C239.79,545.61 233.16,548.49 228.56,554.25L228.27,554.25L228.27,546.48L213.59,546.48L213.59,619.45L213.58,619.45Z"/>
                </g>
                <g transform="matrix(0.0398837,0,0,0.0398837,370.009,260.076)">
                    <path d="M311.57,607.22C320.93,616 331.87,620.32 343.67,620.32C360.65,620.32 373.9,612.12 373.9,597.87C373.9,586.22 367.86,577 352.74,575.99L340.65,575.13C333.31,574.55 331.01,571.38 331.01,568.22C331.01,563.19 334.18,559.44 343.53,559.44C351.45,559.44 357.36,562.18 363.11,566.2L372.17,555.56C364.97,549.51 356.34,545.62 343.52,545.62C328.12,545.62 316.32,553.25 316.32,568.07C316.32,580.59 325.24,587.79 337.33,588.8L350.29,589.95C355.33,590.38 359.21,591.97 359.21,597.15C359.21,603.34 353.16,606.5 344.81,606.5C335.02,606.5 328.11,603.34 321.78,597.15L311.56,607.22L311.57,607.22Z"/>
                </g>
                <g transform="matrix(0.0398837,0,0,0.0398837,370.009,260.076)">
                    <path d="M382.24,582.9C382.24,598.73 384.55,604.78 390.16,610.97C394.19,615.43 400.95,620.32 412.32,620.32C423.69,620.32 430.46,615.43 434.49,610.97C440.1,604.78 442.4,598.73 442.4,582.9C442.4,567.07 440.1,561.16 434.49,554.98C430.46,550.52 423.7,545.62 412.32,545.62C400.94,545.62 394.19,550.52 390.16,554.98C384.55,561.17 382.24,567.21 382.24,582.9M427.72,583.04C427.72,593.55 426.86,596.42 424.12,600.31C421.96,603.33 417.36,605.64 412.32,605.64C407.28,605.64 402.68,603.34 400.53,600.31C397.79,596.42 396.93,593.55 396.93,582.9C396.93,572.25 397.8,569.51 400.53,565.63C402.68,562.61 407.29,560.3 412.32,560.3C417.35,560.3 421.96,562.6 424.12,565.63C426.86,569.51 427.72,572.39 427.72,583.04"/>
                </g>
                <g transform="matrix(0.0398837,0,0,0.0398837,370.009,260.076)">
                    <path d="M454.94,594.99C454.94,611.54 467.9,620.32 479.41,620.32C487.03,620.32 493.66,617.44 498.26,611.68L498.54,611.68L498.54,619.46L513.22,619.46L513.22,546.48L498.54,546.48L498.54,589.95C498.54,599.88 492.35,605.64 484.14,605.64C475.93,605.64 469.61,599.88 469.61,589.95L469.61,546.48L454.93,546.48L454.93,594.99L454.94,594.99Z"/>
                </g>
                <g transform="matrix(0.0398837,0,0,0.0398837,370.009,260.076)">
                    <path d="M529.32,619.45L544,619.45L544,575.55C544,564.9 551.05,560.29 558.25,560.29C562,560.29 564.44,561.3 567.89,563.89L578.54,551.22C574.07,547.77 569.19,545.61 563.28,545.61C555.51,545.61 548.88,548.49 544.28,554.25L544,554.25L544,546.48L529.32,546.48L529.32,619.45Z"/>
                </g>
                <g transform="matrix(0.0398837,0,0,0.0398837,370.009,260.076)">
                    <path d="M625.31,598.01C621.71,602.47 616.53,605.64 610.49,605.64C598.55,605.64 591.49,598.87 591.49,583.03C591.49,567.19 598.55,560.3 610.49,560.3C616.53,560.3 621.72,563.47 625.31,567.93L636.1,558.29C629.77,550.95 620.99,545.62 609.91,545.62C593.07,545.62 576.81,556.27 576.81,583.04C576.81,609.81 593.07,620.32 609.91,620.32C620.99,620.32 629.78,614.99 636.1,607.66L625.31,598.02L625.31,598.01Z"/>
                </g>
                <g transform="matrix(0.0398837,0,0,0.0398837,370.009,260.076)">
                    <path d="M700,588.51L700,576.42C700,557.56 686.03,545.61 669.92,545.61C655.81,545.61 639.84,554.83 639.84,583.18C639.84,613.11 657.25,620.31 672.23,620.31C682.02,620.31 691.38,616.86 698.57,608.51L687.92,599.45C683.6,603.91 677.56,606.51 671.95,606.51C661.87,606.51 654.54,600.46 654.54,588.51L700.02,588.51L700,588.51ZM654.52,576.43C654.8,565.34 661.28,559.44 669.92,559.44C678.56,559.44 684.88,565.34 685.32,576.43L654.52,576.43Z"/>
                </g>
                <g transform="matrix(0.0398837,0,0,0.0398837,370.009,260.076)">
                    <path d="M101.77,605.64C115.59,605.64 116.31,594.26 116.31,583.04C116.31,571.82 115.59,560.3 101.77,560.3C87.95,560.3 87.37,572.39 87.37,583.04C87.37,593.69 88.09,605.64 101.77,605.64M72.64,734.72L72.64,546.49L87.38,546.49L87.38,554.12C91.99,549.08 98.75,545.63 106.24,545.63C115.16,545.63 121.64,549.66 125.82,555.13C129.85,560.31 131,565.06 131,583.05C131,601.04 129.85,605.65 125.82,610.82C121.65,616.29 115.16,620.32 106.24,620.32C98.75,620.32 92.85,616.87 87.38,611.68L87.33,669.51C92.22,663.76 98.84,660.87 106.61,660.87C117.98,660.87 130.93,669.65 130.93,686.2L130.93,734.71L116.25,734.71L116.25,691.24C116.25,681.3 110.06,675.55 101.85,675.55C93.64,675.55 87.32,681.3 87.32,691.24L87.32,734.71L72.64,734.71L72.64,734.72Z" style="fill-rule:nonzero;"/>
                </g>
                <g transform="matrix(0.0398837,0,0,0.0398837,370.009,260.076)">
                    <path d="M619.12,234.11L552.31,221.69C550.68,221.39 548.9,219.86 548.36,218.29L527.88,170.51C527.12,169.03 527.26,166.72 528.21,165.34L567.14,108.6C568.07,107.23 567.89,105.16 566.71,103.98L518.09,55.36C516.92,54.19 514.84,53.99 513.48,54.93L455.75,94.55C454.38,95.49 452.04,95.66 450.56,94.92L404.25,75.96C402.68,75.44 401.14,73.68 400.84,72.05L387.98,2.95C387.68,1.32 386.07,-0.01 384.42,-0.01L315.65,-0.01C314,-0.01 312.39,1.32 312.09,2.95L299.23,72.05C298.92,73.68 297.39,75.44 295.82,75.96L249.5,94.92C248.01,95.65 245.67,95.48 244.31,94.55L186.58,54.93C185.21,53.99 183.13,54.18 181.96,55.36L133.34,103.98C132.17,105.15 131.97,107.23 132.91,108.6L171.84,165.34C172.77,166.71 172.92,169.03 172.16,170.51L151.68,218.29C151.14,219.86 149.36,221.39 147.73,221.69L80.92,234.11C79.29,234.42 77.96,236.02 77.96,237.68L77.96,306.44C77.96,308.1 79.3,309.71 80.93,310.01L146.1,322.14C147.73,322.44 149.47,323.99 149.97,325.57L170.32,376.39C171.05,377.88 170.88,380.21 169.93,381.58L132.91,435.52C131.98,436.89 132.17,438.97 133.34,440.14L181.97,488.76C183.14,489.93 185.22,490.12 186.59,489.19L239.58,452.82C240.95,451.89 243.23,451.81 244.66,452.65L268.03,465.13C269.51,465.89 271.24,465.25 271.87,463.72L320.05,347.29C320.69,345.76 320.05,343.8 318.64,342.94L312.79,339.36C311.71,338.7 310.24,337.57 309.09,336.53C287.99,323.02 274,299.39 274,272.48C274,230.48 308.05,196.44 350.04,196.44C392.03,196.44 426.08,230.49 426.08,272.48C426.08,299.39 412.09,323.03 390.99,336.53C389.85,337.57 388.38,338.7 387.3,339.36L381.45,342.94C380.04,343.81 379.4,345.76 380.04,347.29L428.22,463.72C428.85,465.25 430.58,465.89 432.06,465.13L455.43,452.65C456.86,451.82 459.14,451.89 460.51,452.82L513.5,489.19C514.87,490.12 516.95,489.93 518.11,488.76L566.74,440.14C567.91,438.97 568.11,436.88 567.17,435.52L530.15,381.58C529.22,380.21 529.04,377.88 529.77,376.39L550.12,325.57C550.62,323.99 552.35,322.44 553.99,322.14L619.16,310.01C620.79,309.71 622.12,308.1 622.12,306.44L622.12,237.68C622.13,236.02 620.8,234.42 619.17,234.11L619.12,234.11ZM607.44,298.92L551.27,309.37C547.01,310.21 544.25,311.99 541.87,314.05C539.71,316.03 537.79,318.33 536.44,321.91L516.24,372.37C514.95,375.36 514.68,377.88 514.65,380.19C514.74,383.83 515.33,387.33 518.06,391.49L549.9,437.89L514.21,473.58L468.76,442.38C464.78,439.75 461.22,439.11 457.77,439.06C454.86,439.09 451.86,439.58 448.52,441.37L436.72,447.67L397.12,351.97C398.07,351.28 398.95,350.58 399.83,349.82C424.41,333.67 440.69,305.73 440.69,274.08C440.69,223.99 400.1,183.41 350.02,183.4C299.94,183.4 259.36,223.99 259.34,274.08C259.34,305.74 275.63,333.66 300.21,349.82C301.09,350.57 301.96,351.27 302.92,351.97L263.32,447.67L251.52,441.37C248.13,439.55 245.09,439.09 242.25,439.06C238.75,439.12 235.22,439.76 231.24,442.4L185.82,473.58L150.12,437.89L181.96,391.48C184.67,387.33 185.28,383.85 185.37,380.19C185.34,377.82 185.04,375.3 183.79,372.39L163.55,321.82C162.19,318.26 160.26,316 158.13,314.04C155.74,311.99 153,310.22 148.7,309.37L92.57,298.93L92.57,248.46L150.37,237.69C154.56,236.85 157.25,235.15 159.62,233.17C161.74,231.29 163.66,229.12 165.09,225.67C166.52,222.22 185.45,178.16 185.45,178.16C186.82,175.16 187.21,172.49 187.23,169.89C187.15,166.33 186.56,162.85 183.9,158.74L150.1,109.49L185.79,73.8L235.97,108.24C240.16,110.97 243.6,111.54 247.24,111.63C249.62,111.61 252.14,111.3 255.07,110.05L301.21,91.16C304.78,89.75 307.03,87.8 308.96,85.67C310.97,83.29 312.68,80.6 313.54,76.42L324.73,16.25L375.2,16.25L386.38,76.36C387.26,80.62 388.97,83.3 390.97,85.67C392.91,87.82 395.16,89.77 398.77,91.19L444.92,110.08C447.81,111.31 450.28,111.61 452.67,111.64C456.28,111.55 459.76,110.98 463.94,108.25L514.14,73.79L549.83,109.49L516.08,158.68C513.37,162.73 512.77,166.3 512.69,169.88C512.71,172.42 513.09,175.01 514.37,177.89L534.85,225.67C536.29,229.12 538.21,231.29 540.33,233.17C542.7,235.14 545.36,236.84 549.56,237.69L607.38,248.44L607.38,298.91L607.44,298.92Z" style="fill-rule:nonzero;"/>
                </g>
            </g>
        </g>
    </g>
</svg>
